<mxfile host="app.diagrams.net" modified="2023-07-10T20:51:06.764Z" agent="Mozilla/5.0 (Macintosh; Intel Mac OS X 10_15_7) AppleWebKit/537.36 (KHTML, like Gecko) Chrome/114.0.0.0 Safari/537.36" etag="hz6gdP7t25BtcjvVYv4Y" version="21.6.1" type="github">
  <diagram id="C5RBs43oDa-KdzZeNtuy" name="Page-1">
    <mxGraphModel dx="954" dy="591" grid="1" gridSize="10" guides="1" tooltips="1" connect="1" arrows="1" fold="1" page="1" pageScale="1" pageWidth="827" pageHeight="1169" math="0" shadow="0">
      <root>
        <mxCell id="WIyWlLk6GJQsqaUBKTNV-0" />
        <mxCell id="WIyWlLk6GJQsqaUBKTNV-1" parent="WIyWlLk6GJQsqaUBKTNV-0" />
        <mxCell id="9paYmkKtuUfXo1V1LrFr-0" value="Model" style="rounded=0;whiteSpace=wrap;html=1;" vertex="1" parent="WIyWlLk6GJQsqaUBKTNV-1">
          <mxGeometry x="160" y="258" width="120" height="60" as="geometry" />
        </mxCell>
        <mxCell id="9paYmkKtuUfXo1V1LrFr-1" value="Controller" style="rounded=0;whiteSpace=wrap;html=1;" vertex="1" parent="WIyWlLk6GJQsqaUBKTNV-1">
          <mxGeometry x="340" y="70" width="120" height="60" as="geometry" />
        </mxCell>
        <mxCell id="9paYmkKtuUfXo1V1LrFr-2" value="View" style="rounded=0;whiteSpace=wrap;html=1;" vertex="1" parent="WIyWlLk6GJQsqaUBKTNV-1">
          <mxGeometry x="502" y="258" width="120" height="60" as="geometry" />
        </mxCell>
        <mxCell id="9paYmkKtuUfXo1V1LrFr-3" value="" style="endArrow=classic;html=1;rounded=0;exitX=0.175;exitY=1.033;exitDx=0;exitDy=0;exitPerimeter=0;entryX=1.05;entryY=0.367;entryDx=0;entryDy=0;entryPerimeter=0;" edge="1" parent="WIyWlLk6GJQsqaUBKTNV-1" source="9paYmkKtuUfXo1V1LrFr-1" target="9paYmkKtuUfXo1V1LrFr-0">
          <mxGeometry width="50" height="50" relative="1" as="geometry">
            <mxPoint x="390" y="330" as="sourcePoint" />
            <mxPoint x="380" y="290" as="targetPoint" />
            <Array as="points">
              <mxPoint x="360" y="280" />
            </Array>
          </mxGeometry>
        </mxCell>
        <mxCell id="9paYmkKtuUfXo1V1LrFr-4" value="" style="endArrow=classic;html=1;rounded=0;exitX=0.175;exitY=1.033;exitDx=0;exitDy=0;exitPerimeter=0;" edge="1" parent="WIyWlLk6GJQsqaUBKTNV-1">
          <mxGeometry width="50" height="50" relative="1" as="geometry">
            <mxPoint x="437.5" y="130" as="sourcePoint" />
            <mxPoint x="500" y="278" as="targetPoint" />
            <Array as="points">
              <mxPoint x="436.5" y="278" />
            </Array>
          </mxGeometry>
        </mxCell>
        <mxCell id="9paYmkKtuUfXo1V1LrFr-5" value="1...*" style="text;html=1;align=center;verticalAlign=middle;resizable=0;points=[];autosize=1;strokeColor=none;fillColor=none;" vertex="1" parent="WIyWlLk6GJQsqaUBKTNV-1">
          <mxGeometry x="300" y="278" width="40" height="30" as="geometry" />
        </mxCell>
        <mxCell id="9paYmkKtuUfXo1V1LrFr-7" value="1...*" style="text;html=1;align=center;verticalAlign=middle;resizable=0;points=[];autosize=1;strokeColor=none;fillColor=none;" vertex="1" parent="WIyWlLk6GJQsqaUBKTNV-1">
          <mxGeometry x="450" y="278" width="40" height="30" as="geometry" />
        </mxCell>
        <mxCell id="9paYmkKtuUfXo1V1LrFr-8" value="Property Observing" style="endArrow=open;endSize=12;dashed=1;html=1;rounded=0;entryX=0;entryY=0.5;entryDx=0;entryDy=0;" edge="1" parent="WIyWlLk6GJQsqaUBKTNV-1" target="9paYmkKtuUfXo1V1LrFr-1">
          <mxGeometry width="160" relative="1" as="geometry">
            <mxPoint x="200" y="250" as="sourcePoint" />
            <mxPoint x="260" y="110" as="targetPoint" />
            <Array as="points">
              <mxPoint x="200" y="100" />
            </Array>
          </mxGeometry>
        </mxCell>
        <mxCell id="9paYmkKtuUfXo1V1LrFr-9" value="IBActions" style="endArrow=open;endSize=12;dashed=1;html=1;rounded=0;entryX=1;entryY=0.5;entryDx=0;entryDy=0;" edge="1" parent="WIyWlLk6GJQsqaUBKTNV-1" target="9paYmkKtuUfXo1V1LrFr-1">
          <mxGeometry width="160" relative="1" as="geometry">
            <mxPoint x="560" y="258" as="sourcePoint" />
            <mxPoint x="700" y="108" as="targetPoint" />
            <Array as="points">
              <mxPoint x="560" y="100" />
            </Array>
          </mxGeometry>
        </mxCell>
        <mxCell id="9paYmkKtuUfXo1V1LrFr-10" value="owns" style="text;html=1;align=center;verticalAlign=middle;resizable=0;points=[];autosize=1;strokeColor=none;fillColor=none;" vertex="1" parent="WIyWlLk6GJQsqaUBKTNV-1">
          <mxGeometry x="315" y="198" width="50" height="30" as="geometry" />
        </mxCell>
        <mxCell id="9paYmkKtuUfXo1V1LrFr-11" value="owns" style="text;html=1;align=center;verticalAlign=middle;resizable=0;points=[];autosize=1;strokeColor=none;fillColor=none;" vertex="1" parent="WIyWlLk6GJQsqaUBKTNV-1">
          <mxGeometry x="440" y="198" width="50" height="30" as="geometry" />
        </mxCell>
      </root>
    </mxGraphModel>
  </diagram>
</mxfile>
